<svg width="16" height="16" fill="none" xmlns="http://www.w3.org/2000/svg"><path d="M15.992 12.623a.773.773 0 0 1-.237.677l-2.253 2.236a1.268 1.268 0 0 1-.398.288 1.59 1.59 0 0 1-.482.152 2.314 2.314 0 0 1-.322.017c-.215 0-.562-.036-1.042-.11-.48-.073-1.067-.254-1.761-.542-.695-.288-1.482-.72-2.363-1.295-.881-.576-1.818-1.367-2.812-2.372-.79-.779-1.445-1.524-1.965-2.236a15.93 15.93 0 0 1-1.253-1.973 10.628 10.628 0 0 1-.712-1.643 8.717 8.717 0 0 1-.321-1.27 4.195 4.195 0 0 1-.068-.839c.011-.203.017-.316.017-.338.022-.159.073-.32.152-.483a1.27 1.27 0 0 1 .288-.398L2.713.24a.746.746 0 0 1 .542-.237.63.63 0 0 1 .39.127c.112.085.208.19.287.313l1.813 3.439c.101.18.13.378.085.593a1.056 1.056 0 0 1-.288.542l-.83.83a.282.282 0 0 0-.06.11.418.418 0 0 0-.025.127c.045.237.147.508.305.813.135.27.344.601.627.99.282.39.683.839 1.202 1.347.508.52.96.923 1.355 1.211.395.288.726.5.991.635.265.136.469.218.61.246l.211.042c.023 0 .06-.008.11-.025a.283.283 0 0 0 .11-.06l.966-.982c.204-.18.44-.27.712-.27.192 0 .344.033.457.1h.017l3.269 1.932c.237.147.378.333.423.559Z" fill="#fff"/></svg>