<svg width="14" height="14" fill="none" xmlns="http://www.w3.org/2000/svg"><path d="M1.237 11.343A1.172 1.172 0 1 0 2.895 13l3.848-3.85-1.658-1.656-3.848 3.849Zm9.617-7.133 1.676-.867.877-1.697-.818-.818-1.695.878-.868 1.675-2.039 2.041.827.829 2.04-2.041Z" fill="#010002"/><path d="m11.221 8.659-.158-.016a2.34 2.34 0 0 0-.81.152l-4.81-4.812a2.34 2.34 0 0 0 .152-.81l-.016-.158A2.337 2.337 0 0 0 3.251.828c-.36 0-.7.088-1.005.235L3.804 2.62a.764.764 0 0 1 .175.281.78.78 0 0 1-.728 1.053.774.774 0 0 1-.271-.053.777.777 0 0 1-.281-.177L1.142 2.168a2.32 2.32 0 0 0-.235 1.005c0 1.24.967 2.246 2.186 2.328l.158.016c.286 0 .557-.059.81-.152l4.81 4.812c-.092.253-.15.524-.15.81l.016.158a2.335 2.335 0 0 0 2.327 2.187c.361 0 .7-.087 1.005-.235l-1.557-1.557a.798.798 0 0 1-.178-.28.78.78 0 0 1 .73-1.054c.092 0 .183.02.272.053a.75.75 0 0 1 .28.176l1.558 1.557a2.31 2.31 0 0 0 .234-1.005 2.339 2.339 0 0 0-2.187-2.328Z" fill="#010002"/></svg>