<svg width="14" height="15" fill="none" xmlns="http://www.w3.org/2000/svg"><path d="M13.025 11.477c.51.51.51 1.341 0 1.852l-.002.002-.896.885a.522.522 0 0 1-.741-.004.524.524 0 0 1 .005-.741l.524-.518H3.509a2.098 2.098 0 0 1-2.095-2.096v-8.42l-.522.516a.524.524 0 1 1-.736-.746l.885-.873a1.32 1.32 0 0 1 1.847 0l.884.873a.524.524 0 0 1-.735.746l-.575-.567v8.471c0 .578.47 1.048 1.047 1.048h8.459l-.577-.57a.524.524 0 0 1 .736-.746l.896.885.002.003ZM11.837.957H5.054a.524.524 0 0 0 0 1.047h6.783c.29 0 .524.234.524.524v6.81a.524.524 0 0 0 1.047 0v-6.81c0-.868-.703-1.572-1.57-1.572ZM7.7 9.936c.29 0 .524-.234.524-.523V7.082a1.442 1.442 0 0 0-2.357-1.11 1.433 1.433 0 0 0-1.48-.216.524.524 0 0 0-.877.386v3.275a.524.524 0 1 0 1.048 0V7.082a.393.393 0 0 1 .785 0v2.335a.524.524 0 1 0 1.048 0V7.082a.393.393 0 0 1 .786 0v2.332c0 .29.234.524.523.524Zm2.377-6.152h-.016a1.21 1.21 0 0 0-1.208 1.21.524.524 0 1 0 1.047 0c0-.088.074-.162.16-.162h.017c.083 0 .154.068.16.15-.01.04-.09.277-.592.829-.312.342-.618.621-.62.624a.524.524 0 0 0 .351.911h1.415a.524.524 0 0 0 0-1.047h-.18c.465-.548.674-.955.674-1.305a1.21 1.21 0 0 0-1.208-1.21Z" fill="#000"/></svg>