<svg width="14" height="15" fill="none" xmlns="http://www.w3.org/2000/svg"><path d="M4.844 8.202a.308.308 0 0 0-.311-.304H3.447a.308.308 0 0 0-.311.304v1.062c0 .169.14.305.31.305h1.087a.308.308 0 0 0 .311-.305V8.202Zm2.714 0a.308.308 0 0 0-.31-.304H6.16a.308.308 0 0 0-.31.304v1.062c0 .169.138.305.31.305h1.086a.308.308 0 0 0 .311-.305V8.202Zm2.715 0a.308.308 0 0 0-.311-.304H8.876a.308.308 0 0 0-.312.304v1.062c0 .169.14.305.312.305h1.086a.308.308 0 0 0 .31-.305V8.202Zm-5.429 2.655a.308.308 0 0 0-.311-.304H3.447a.308.308 0 0 0-.311.304v1.062c0 .168.14.304.31.304h1.087a.308.308 0 0 0 .311-.304v-1.062Zm2.714 0a.308.308 0 0 0-.31-.304H6.16a.308.308 0 0 0-.31.304v1.062c0 .168.138.304.31.304h1.086a.307.307 0 0 0 .311-.304v-1.062Zm2.715 0a.308.308 0 0 0-.311-.304H8.876a.308.308 0 0 0-.312.304v1.062c0 .168.14.304.312.304h1.086a.308.308 0 0 0 .31-.304v-1.062Z" fill="#000"/><path d="M12.215 2.296v1.622c0 .733-.608 1.324-1.358 1.324h-.856c-.75 0-1.366-.59-1.366-1.324V2.29H4.774v1.628c0 .733-.616 1.324-1.366 1.324h-.857c-.75 0-1.357-.59-1.357-1.324V2.296C.538 2.316 0 2.846 0 3.497v9.508c0 .664.55 1.209 1.23 1.209h10.95c.677 0 1.229-.546 1.229-1.21V3.498c0-.652-.539-1.182-1.194-1.201Zm-.398 10.117c0 .287-.238.52-.531.52H2.099a.526.526 0 0 1-.531-.52V7.502c0-.287.238-.52.531-.52h9.187c.293 0 .531.233.531.52v4.91Z" fill="#000"/><path d="M2.549 4.372h.847a.46.46 0 0 0 .466-.455V1.258a.46.46 0 0 0-.466-.455h-.847a.46.46 0 0 0-.466.455v2.659a.46.46 0 0 0 .466.455Zm7.441 0h.847a.46.46 0 0 0 .465-.455V1.258a.46.46 0 0 0-.465-.455H9.99a.46.46 0 0 0-.466.455v2.659a.46.46 0 0 0 .466.455Z" fill="#000"/></svg>