<svg width="12" height="16" viewBox="0 0 12 16" fill="none" xmlns="http://www.w3.org/2000/svg">
<path d="M6.00016 -0.000976562C2.805 -0.000976562 0.205566 2.59846 0.205566 5.79359C0.205566 9.75884 5.39116 15.5801 5.61194 15.8259C5.81932 16.0569 6.18138 16.0565 6.38838 15.8259C6.60916 15.5801 11.7948 9.75884 11.7948 5.79359C11.7947 2.59846 9.19529 -0.000976562 6.00016 -0.000976562ZM6.00016 8.70899C4.3926 8.70899 3.08479 7.40115 3.08479 5.79359C3.08479 4.18602 4.39263 2.87821 6.00016 2.87821C7.60769 2.87821 8.9155 4.18605 8.9155 5.79362C8.9155 7.40118 7.60769 8.70899 6.00016 8.70899Z" fill="white"/>
</svg>
