<svg width="16" height="16" viewBox="0 0 16 16" fill="none" xmlns="http://www.w3.org/2000/svg">
<path d="M15.9924 12.6228C16.0263 12.8825 15.9471 13.1084 15.7552 13.3003L13.5025 15.536C13.4008 15.649 13.2682 15.745 13.1044 15.824C12.9407 15.9031 12.7798 15.9539 12.6218 15.9764C12.6105 15.9764 12.5765 15.9793 12.5201 15.985C12.4637 15.9906 12.3903 15.9935 12.2999 15.9935C12.0853 15.9935 11.7381 15.9568 11.2582 15.8833C10.7783 15.8099 10.1911 15.6292 9.49669 15.3413C8.80212 15.0534 8.01453 14.6214 7.13378 14.0456C6.25303 13.4698 5.31576 12.6793 4.32206 11.6742C3.53162 10.8951 2.87668 10.1498 2.35724 9.43844C1.83781 8.72701 1.42 8.06925 1.10383 7.46513C0.78762 6.861 0.550487 6.31334 0.392399 5.82213C0.23431 5.33093 0.127036 4.90748 0.0705753 4.55178C0.0141151 4.19608 -0.00846903 3.9166 0.00282301 3.71334C0.0141151 3.51009 0.0197611 3.39717 0.0197611 3.37458C0.0423452 3.21649 0.0931594 3.05558 0.172204 2.89185C0.251248 2.72811 0.34723 2.59543 0.460151 2.4938L2.71291 0.241039C2.871 0.0829506 3.05168 0.00390625 3.25493 0.00390625C3.40173 0.00390625 3.53159 0.0462514 3.64451 0.130942C3.75743 0.215632 3.85341 0.320084 3.93246 0.444296L5.74483 3.88272C5.84646 4.0634 5.87469 4.26101 5.82952 4.47556C5.78435 4.69011 5.68837 4.87078 5.54157 5.01757L4.71161 5.84754C4.68902 5.87012 4.66926 5.90682 4.65232 5.95764C4.63539 6.00845 4.62692 6.0508 4.62692 6.08467C4.67208 6.32181 4.77371 6.59282 4.9318 6.8977C5.06731 7.16871 5.27621 7.499 5.55851 7.88858C5.84081 8.27815 6.24168 8.72698 6.76111 9.23513C7.26925 9.75462 7.72094 10.1583 8.11616 10.4463C8.5113 10.7341 8.8417 10.9459 9.10706 11.0814C9.37243 11.2169 9.57568 11.2988 9.71681 11.3269L9.92848 11.3693C9.95106 11.3693 9.98784 11.3608 10.0386 11.3439C10.0894 11.3269 10.1261 11.3072 10.1487 11.2846L11.1142 10.3022C11.3175 10.1215 11.5546 10.0312 11.8256 10.0312C12.0176 10.0312 12.17 10.065 12.2829 10.1328H12.2998L15.5688 12.0638C15.806 12.2107 15.9472 12.3969 15.9924 12.6228Z" fill="white"/>
</svg>
