<svg width="14" height="15" viewBox="0 0 14 15" fill="none" xmlns="http://www.w3.org/2000/svg">
<path d="M4.84421 8.20249C4.84421 8.03452 4.70488 7.89844 4.53296 7.89844H3.44682C3.2751 7.89844 3.13574 8.03452 3.13574 8.20249V9.26443C3.13574 9.43262 3.2751 9.56876 3.44682 9.56876H4.53296C4.70488 9.56876 4.84421 9.43262 4.84421 9.26443V8.20249Z" fill="black"/>
<path d="M7.5584 8.20249C7.5584 8.03452 7.41904 7.89844 7.24746 7.89844H6.16118C5.98946 7.89844 5.8501 8.03452 5.8501 8.20249V9.26443C5.8501 9.43262 5.98946 9.56876 6.16118 9.56876H7.24746C7.41904 9.56876 7.5584 9.43262 7.5584 9.26443V8.20249Z" fill="black"/>
<path d="M10.2729 8.20249C10.2729 8.03452 10.1335 7.89844 9.96181 7.89844H8.8757C8.70378 7.89844 8.56445 8.03452 8.56445 8.20249V9.26443C8.56445 9.43262 8.70378 9.56876 8.8757 9.56876H9.96181C10.1335 9.56876 10.2729 9.43262 10.2729 9.26443V8.20249Z" fill="black"/>
<path d="M4.84421 10.8569C4.84421 10.6887 4.70488 10.5527 4.53296 10.5527H3.44682C3.2751 10.5527 3.13574 10.6887 3.13574 10.8569V11.9187C3.13574 12.0867 3.2751 12.2228 3.44682 12.2228H4.53296C4.70488 12.2228 4.84421 12.0867 4.84421 11.9187V10.8569Z" fill="black"/>
<path d="M7.5584 10.8569C7.5584 10.6887 7.41904 10.5527 7.24746 10.5527H6.16118C5.98946 10.5527 5.8501 10.6887 5.8501 10.8569V11.9187C5.8501 12.0867 5.98946 12.2228 6.16118 12.2228H7.24746C7.41904 12.2228 7.5584 12.0867 7.5584 11.9187V10.8569Z" fill="black"/>
<path d="M10.2729 10.8569C10.2729 10.6887 10.1335 10.5527 9.96195 10.5527H8.8757C8.70378 10.5527 8.56445 10.6887 8.56445 10.8569V11.9187C8.56445 12.0867 8.70378 12.2228 8.8757 12.2228H9.96195C10.1335 12.2228 10.2729 12.0867 10.2729 11.9187V10.8569Z" fill="black"/>
<path d="M12.215 2.29586V3.9182C12.215 4.65148 11.6068 5.24239 10.8572 5.24239H10.0006C9.25091 5.24239 8.63463 4.65148 8.63463 3.9182V2.29004H4.77386V3.9182C4.77386 4.65148 4.15761 5.24239 3.40804 5.24239H2.5513C1.8017 5.24239 1.19351 4.65148 1.19351 3.9182V2.29586C0.538357 2.31518 0 2.8454 0 3.49711V13.0048C0 13.6687 0.550239 14.214 1.2291 14.214H12.1794C12.8572 14.214 13.4085 13.6676 13.4085 13.0048V3.49711C13.4085 2.8454 12.8702 2.31518 12.215 2.29586ZM11.8172 12.4127C11.8172 12.6996 11.5793 12.9324 11.2858 12.9324H2.0993C1.80581 12.9324 1.56793 12.6996 1.56793 12.4127V7.50165C1.56793 7.2146 1.80578 6.98181 2.0993 6.98181H11.2858C11.5793 6.98181 11.8171 7.2146 11.8171 7.50165L11.8172 12.4127Z" fill="black"/>
<path d="M2.54869 4.37207H3.39596C3.65313 4.37207 3.86165 4.16848 3.86165 3.91701V1.25796C3.86165 1.00646 3.65313 0.802734 3.39596 0.802734H2.54869C2.2915 0.802734 2.08301 1.00646 2.08301 1.25796V3.91701C2.08301 4.16848 2.2915 4.37207 2.54869 4.37207Z" fill="black"/>
<path d="M9.98958 4.37207H10.8369C11.0939 4.37207 11.3024 4.16848 11.3024 3.91701V1.25796C11.3024 1.00646 11.0939 0.802734 10.8369 0.802734H9.98958C9.73244 0.802734 9.52393 1.00646 9.52393 1.25796V3.91701C9.52393 4.16848 9.73244 4.37207 9.98958 4.37207Z" fill="black"/>
</svg>
